<?xml version="1.0" standalone="no"?><!DOCTYPE svg PUBLIC "-//W3C//DTD SVG 1.1//EN" "http://www.w3.org/Graphics/SVG/1.1/DTD/svg11.dtd"><svg width="850" height="1100" version="1.1" xmlns="http://www.w3.org/2000/svg" xmlns:xlink="http://www.w3.org/1999/xlink"><defs xmlns="http://www.w3.org/1999/xhtml"><style type="text/css"><![CDATA[
body { background-color: rgb(234, 234, 234); }
#canvas svg { box-shadow: rgba(0, 0, 0, 0.0588235) 0px 3px 2px 0px, rgba(0, 0, 0, 0.0196078) -1px -1px 1px 0px inset; border-width: 1px; border-style: solid; border-color: rgb(226, 226, 226) rgb(226, 226, 226) rgb(206, 206, 206); background-color: white; }]]></style></defs><rect x="0" y="0" width="850" height="1100" fill="rgb(0, 0, 0)" stroke="rgb(0, 0, 0)"/><ellipse cx="850" cy="183.33333333333334" rx="758.3333333333334" ry="758.3333333333334" fill="rgb(255, 255, 255)" stroke="rgb(0, 0, 0)"/><ellipse cx="283.3333333333333" cy="275" rx="25" ry="25" fill="rgb(0, 0, 0)" stroke="rgb(0, 0, 0)"/><ellipse cx="280.82906092594686" cy="279.4404926896095" rx="24.68404445098713" ry="24.68404445098713" fill="rgb(255, 255, 255)" stroke="rgb(0, 0, 0)"/><ellipse cx="285.7121706530428" cy="282.83379631127247" rx="23.25498854843581" ry="23.25498854843581" fill="rgb(0, 0, 0)" stroke="rgb(0, 0, 0)"/><ellipse cx="850" cy="550" rx="35" ry="35" fill="rgb(0, 0, 0)" stroke="rgb(0, 0, 0)"/><ellipse cx="843.0993938464671" cy="544.7418813691474" rx="31.814212626311928" ry="31.814212626311928" fill="rgb(255, 255, 255)" stroke="rgb(0, 0, 0)"/><ellipse cx="842.5229824418905" cy="540.7570423635559" rx="26.693615839238966" ry="26.693615839238966" fill="rgb(0, 0, 0)" stroke="rgb(0, 0, 0)"/><ellipse cx="750" cy="200" rx="50" ry="50" fill="rgb(0, 0, 0)" stroke="rgb(0, 0, 0)"/><ellipse cx="757.701976778917" cy="193.10710853897035" rx="48.983319029212005" ry="48.983319029212005" fill="rgb(255, 255, 255)" stroke="rgb(0, 0, 0)"/><ellipse cx="764.6840995607649" cy="199.72888234231988" rx="44.12437828088062" ry="44.12437828088062" fill="rgb(0, 0, 0)" stroke="rgb(0, 0, 0)"/><ellipse cx="510" cy="550" rx="150" ry="150" fill="rgb(0, 0, 0)" stroke="rgb(0, 0, 0)"/><ellipse cx="515.1620590081438" cy="534.5487135555595" rx="136.74378650262952" ry="136.74378650262952" fill="rgb(255, 255, 255)" stroke="rgb(0, 0, 0)"/><ellipse cx="536.3581627019813" cy="553.8612091625932" rx="113.56605969085267" ry="113.56605969085267" fill="rgb(0, 0, 0)" stroke="rgb(0, 0, 0)"/><ellipse cx="550" cy="50" rx="75" ry="75" fill="rgb(0, 0, 0)" stroke="rgb(0, 0, 0)"/><ellipse cx="535.5635087424889" cy="56.2916384707205" rx="73.47035083221272" ry="73.47035083221272" fill="rgb(255, 255, 255)" stroke="rgb(0, 0, 0)"/><ellipse cx="528.4428379477836" cy="47.863188121210584" rx="73.34095698178254" ry="73.34095698178254" fill="rgb(0, 0, 0)" stroke="rgb(0, 0, 0)"/><rect x="-77" y="946" width="112" height="52" fill="rgb(255, 255, 255)" stroke="rgb(0, 0, 0)" stroke-width="3"/><rect x="-28" y="972" width="26" height="36" fill="rgb(255, 255, 255)" stroke="rgb(0, 0, 0)" stroke-width="3"/><rect x="-15" y="938" width="29" height="52" fill="rgb(255, 255, 255)" stroke="rgb(0, 0, 0)" stroke-width="3"/><rect x="-39" y="926" width="100" height="100" fill="rgb(255, 255, 255)" stroke="rgb(0, 0, 0)" stroke-width="3"/><rect x="20" y="861" width="24" height="100" fill="rgb(255, 255, 255)" stroke="rgb(0, 0, 0)" stroke-width="3"/><rect x="24" y="886" width="126" height="22" fill="rgb(255, 255, 255)" stroke="rgb(0, 0, 0)" stroke-width="3"/><rect x="78" y="817" width="52" height="109" fill="rgb(255, 255, 255)" stroke="rgb(0, 0, 0)" stroke-width="3"/><rect x="108" y="792" width="8" height="105" fill="rgb(255, 255, 255)" stroke="rgb(0, 0, 0)" stroke-width="3"/><rect x="95" y="810" width="137" height="14" fill="rgb(255, 255, 255)" stroke="rgb(0, 0, 0)" stroke-width="3"/><rect x="151" y="795" width="61" height="22" fill="rgb(255, 255, 255)" stroke="rgb(0, 0, 0)" stroke-width="3"/><rect x="198" y="747" width="5" height="98" fill="rgb(255, 255, 255)" stroke="rgb(0, 0, 0)" stroke-width="3"/><rect x="180" y="723" width="127" height="34" fill="rgb(255, 255, 255)" stroke="rgb(0, 0, 0)" stroke-width="3"/><rect x="229" y="711" width="47" height="36" fill="rgb(255, 255, 255)" stroke="rgb(0, 0, 0)" stroke-width="3"/><rect x="262" y="653" width="6" height="85" fill="rgb(255, 255, 255)" stroke="rgb(0, 0, 0)" stroke-width="3"/><rect x="265" y="647" width="34" height="16" fill="rgb(255, 255, 255)" stroke="rgb(0, 0, 0)" stroke-width="3"/><rect x="278" y="638" width="14" height="17" fill="rgb(255, 255, 255)" stroke="rgb(0, 0, 0)" stroke-width="3"/><rect x="282" y="624" width="21" height="27" fill="rgb(255, 255, 255)" stroke="rgb(0, 0, 0)" stroke-width="3"/></svg>