<?xml version="1.0" standalone="no"?><!DOCTYPE svg PUBLIC "-//W3C//DTD SVG 1.1//EN" "http://www.w3.org/Graphics/SVG/1.1/DTD/svg11.dtd"><svg width="850" height="1100" version="1.1" xmlns="http://www.w3.org/2000/svg" xmlns:xlink="http://www.w3.org/1999/xlink"><defs xmlns="http://www.w3.org/1999/xhtml"><style type="text/css"><![CDATA[
body { background-color: rgb(234, 234, 234); }
#canvas svg { box-shadow: rgba(0, 0, 0, 0.0588235) 0px 3px 2px 0px, rgba(0, 0, 0, 0.0196078) -1px -1px 1px 0px inset; border-width: 1px; border-style: solid; border-color: rgb(226, 226, 226) rgb(226, 226, 226) rgb(206, 206, 206); background-color: white; }]]></style></defs><rect x="0" y="0" width="850" height="1100" fill="rgb(0, 0, 0)" stroke="rgb(0, 0, 0)"/><ellipse cx="850" cy="183.33333333333334" rx="758.3333333333334" ry="758.3333333333334" fill="rgb(255, 255, 255)" stroke="rgb(0, 0, 0)"/><ellipse cx="212.5" cy="275" rx="35" ry="35" fill="rgb(0, 0, 0)" stroke="rgb(0, 0, 0)"/><ellipse cx="215.2640634533018" cy="275.8036778960377" rx="33.993848259560764" ry="33.993848259560764" fill="rgb(255, 255, 255)" stroke="rgb(0, 0, 0)"/><ellipse cx="220.1205933126534" cy="274.62507554561165" rx="29.24837459797117" ry="29.24837459797117" fill="rgb(0, 0, 0)" stroke="rgb(0, 0, 0)"/><ellipse cx="680" cy="800" rx="50" ry="50" fill="rgb(0, 0, 0)" stroke="rgb(0, 0, 0)"/><ellipse cx="674.1785323480144" cy="809.4180790474638" rx="53.226549699902534" ry="53.226549699902534" fill="rgb(255, 255, 255)" stroke="rgb(0, 0, 0)"/><ellipse cx="669.7738557065974" cy="816.1412445273988" rx="46.09905172262419" ry="46.09905172262419" fill="rgb(0, 0, 0)" stroke="rgb(0, 0, 0)"/><ellipse cx="750" cy="200" rx="85" ry="85" fill="rgb(0, 0, 0)" stroke="rgb(0, 0, 0)"/><ellipse cx="737.6173520884477" cy="204.18268212350085" rx="77.25775970099494" ry="77.25775970099494" fill="rgb(255, 255, 255)" stroke="rgb(0, 0, 0)"/><ellipse cx="748.1466954454328" cy="190.91151049518373" rx="63.23424967258344" ry="63.23424967258344" fill="rgb(0, 0, 0)" stroke="rgb(0, 0, 0)"/><ellipse cx="590" cy="500" rx="150" ry="150" fill="rgb(0, 0, 0)" stroke="rgb(0, 0, 0)"/><ellipse cx="567.3028871556744" cy="491.0228694276884" rx="149.77883735205978" ry="149.77883735205978" fill="rgb(255, 255, 255)" stroke="rgb(0, 0, 0)"/><ellipse cx="538.4452183654432" cy="489.94688965481794" rx="125.62114816000185" ry="125.62114816000185" fill="rgb(0, 0, 0)" stroke="rgb(0, 0, 0)"/><ellipse cx="450" cy="50" rx="70" ry="70" fill="rgb(0, 0, 0)" stroke="rgb(0, 0, 0)"/><ellipse cx="455.69934646971524" cy="59.10363736655563" rx="65.50468412041664" ry="65.50468412041664" fill="rgb(255, 255, 255)" stroke="rgb(0, 0, 0)"/><ellipse cx="467.668653065189" cy="50.491314194745804" rx="61.77202081958864" ry="61.77202081958864" fill="rgb(0, 0, 0)" stroke="rgb(0, 0, 0)"/><rect x="-77" y="946" width="112" height="52" fill="rgb(255, 255, 255)" stroke="rgb(0, 0, 0)" stroke-width="3"/><rect x="-28" y="972" width="26" height="36" fill="rgb(255, 255, 255)" stroke="rgb(0, 0, 0)" stroke-width="3"/><rect x="-15" y="938" width="29" height="52" fill="rgb(255, 255, 255)" stroke="rgb(0, 0, 0)" stroke-width="3"/><rect x="-39" y="926" width="100" height="100" fill="rgb(255, 255, 255)" stroke="rgb(0, 0, 0)" stroke-width="3"/><rect x="20" y="861" width="24" height="100" fill="rgb(255, 255, 255)" stroke="rgb(0, 0, 0)" stroke-width="3"/><rect x="24" y="886" width="126" height="22" fill="rgb(255, 255, 255)" stroke="rgb(0, 0, 0)" stroke-width="3"/><rect x="78" y="817" width="52" height="109" fill="rgb(255, 255, 255)" stroke="rgb(0, 0, 0)" stroke-width="3"/><rect x="108" y="792" width="8" height="105" fill="rgb(255, 255, 255)" stroke="rgb(0, 0, 0)" stroke-width="3"/><rect x="95" y="810" width="137" height="14" fill="rgb(255, 255, 255)" stroke="rgb(0, 0, 0)" stroke-width="3"/><rect x="151" y="795" width="61" height="22" fill="rgb(255, 255, 255)" stroke="rgb(0, 0, 0)" stroke-width="3"/><rect x="198" y="747" width="5" height="98" fill="rgb(255, 255, 255)" stroke="rgb(0, 0, 0)" stroke-width="3"/><rect x="180" y="723" width="127" height="34" fill="rgb(255, 255, 255)" stroke="rgb(0, 0, 0)" stroke-width="3"/><rect x="229" y="711" width="47" height="36" fill="rgb(255, 255, 255)" stroke="rgb(0, 0, 0)" stroke-width="3"/><rect x="262" y="653" width="6" height="85" fill="rgb(255, 255, 255)" stroke="rgb(0, 0, 0)" stroke-width="3"/><rect x="265" y="647" width="34" height="16" fill="rgb(255, 255, 255)" stroke="rgb(0, 0, 0)" stroke-width="3"/><rect x="278" y="638" width="14" height="17" fill="rgb(255, 255, 255)" stroke="rgb(0, 0, 0)" stroke-width="3"/><rect x="282" y="624" width="21" height="27" fill="rgb(255, 255, 255)" stroke="rgb(0, 0, 0)" stroke-width="3"/></svg>