<?xml version="1.0" standalone="no"?><!DOCTYPE svg PUBLIC "-//W3C//DTD SVG 1.1//EN" "http://www.w3.org/Graphics/SVG/1.1/DTD/svg11.dtd"><svg width="850" height="1100" version="1.1" xmlns="http://www.w3.org/2000/svg" xmlns:xlink="http://www.w3.org/1999/xlink"><defs xmlns="http://www.w3.org/1999/xhtml"><style type="text/css"><![CDATA[
body { background-color: rgb(234, 234, 234); }
#canvas svg { box-shadow: rgba(0, 0, 0, 0.0588235) 0px 3px 2px 0px, rgba(0, 0, 0, 0.0196078) -1px -1px 1px 0px inset; border-width: 1px; border-style: solid; border-color: rgb(226, 226, 226) rgb(226, 226, 226) rgb(206, 206, 206); background-color: white; }]]></style></defs><rect x="0" y="0" width="850" height="1100" fill="rgb(0, 0, 0)" stroke="rgb(0, 0, 0)"/><ellipse cx="850" cy="183.33333333333334" rx="758.3333333333334" ry="758.3333333333334" fill="rgb(255, 255, 255)" stroke="rgb(0, 0, 0)"/><ellipse cx="283.3333333333333" cy="275" rx="85" ry="85" fill="rgb(0, 0, 0)" stroke="rgb(0, 0, 0)"/><ellipse cx="267.0447687304889" cy="270.24205930298194" rx="98.33206499787046" ry="98.33206499787046" fill="rgb(255, 255, 255)" stroke="rgb(0, 0, 0)"/><ellipse cx="257.37064606872786" cy="273.48276545077795" rx="86.94522102618363" ry="86.94522102618363" fill="rgb(0, 0, 0)" stroke="rgb(0, 0, 0)"/><ellipse cx="870" cy="550" rx="150" ry="150" fill="rgb(0, 0, 0)" stroke="rgb(0, 0, 0)"/><ellipse cx="876.5852776402608" cy="564.9914368521422" rx="189.9952978687361" ry="189.9952978687361" fill="rgb(255, 255, 255)" stroke="rgb(0, 0, 0)"/><ellipse cx="849.7805340297384" cy="598.9319493077215" rx="157.11235668825609" ry="157.11235668825609" fill="rgb(0, 0, 0)" stroke="rgb(0, 0, 0)"/><ellipse cx="750" cy="200" rx="35" ry="35" fill="rgb(0, 0, 0)" stroke="rgb(0, 0, 0)"/><ellipse cx="751.5204865355045" cy="193.52330205077305" rx="44.47022118093446" ry="44.47022118093446" fill="rgb(255, 255, 255)" stroke="rgb(0, 0, 0)"/><ellipse cx="754.654877126707" cy="184.9663614396758" rx="40.95664687500395" ry="40.95664687500395" fill="rgb(0, 0, 0)" stroke="rgb(0, 0, 0)"/><ellipse cx="510" cy="550" rx="45" ry="45" fill="rgb(0, 0, 0)" stroke="rgb(0, 0, 0)"/><ellipse cx="505.55099059129134" cy="551.1320729139261" rx="55.30427836440504" ry="55.30427836440504" fill="rgb(255, 255, 255)" stroke="rgb(0, 0, 0)"/><ellipse cx="514.520416125961" cy="553.5154221520189" rx="50.524192578996036" ry="50.524192578996036" fill="rgb(0, 0, 0)" stroke="rgb(0, 0, 0)"/><ellipse cx="550" cy="50" rx="70" ry="70" fill="rgb(0, 0, 0)" stroke="rgb(0, 0, 0)"/><ellipse cx="537.6146506266668" cy="58.945114782080054" rx="86.62463664915413" ry="86.62463664915413" fill="rgb(255, 255, 255)" stroke="rgb(0, 0, 0)"/><ellipse cx="546.7213135388936" cy="70.36359449727186" rx="79.9422005624926" ry="79.9422005624926" fill="rgb(0, 0, 0)" stroke="rgb(0, 0, 0)"/><rect x="-77" y="946" width="112" height="52" fill="rgb(255, 255, 255)" stroke="rgb(0, 0, 0)" stroke-width="3"/><rect x="-28" y="972" width="26" height="36" fill="rgb(255, 255, 255)" stroke="rgb(0, 0, 0)" stroke-width="3"/><rect x="-15" y="938" width="29" height="52" fill="rgb(255, 255, 255)" stroke="rgb(0, 0, 0)" stroke-width="3"/><rect x="-39" y="926" width="100" height="100" fill="rgb(255, 255, 255)" stroke="rgb(0, 0, 0)" stroke-width="3"/><rect x="20" y="861" width="24" height="100" fill="rgb(255, 255, 255)" stroke="rgb(0, 0, 0)" stroke-width="3"/><rect x="24" y="886" width="126" height="22" fill="rgb(255, 255, 255)" stroke="rgb(0, 0, 0)" stroke-width="3"/><rect x="78" y="817" width="52" height="109" fill="rgb(255, 255, 255)" stroke="rgb(0, 0, 0)" stroke-width="3"/><rect x="108" y="792" width="8" height="105" fill="rgb(255, 255, 255)" stroke="rgb(0, 0, 0)" stroke-width="3"/><rect x="95" y="810" width="137" height="14" fill="rgb(255, 255, 255)" stroke="rgb(0, 0, 0)" stroke-width="3"/><rect x="151" y="795" width="61" height="22" fill="rgb(255, 255, 255)" stroke="rgb(0, 0, 0)" stroke-width="3"/><rect x="198" y="747" width="5" height="98" fill="rgb(255, 255, 255)" stroke="rgb(0, 0, 0)" stroke-width="3"/><rect x="180" y="723" width="127" height="34" fill="rgb(255, 255, 255)" stroke="rgb(0, 0, 0)" stroke-width="3"/><rect x="229" y="711" width="47" height="36" fill="rgb(255, 255, 255)" stroke="rgb(0, 0, 0)" stroke-width="3"/><rect x="262" y="653" width="6" height="85" fill="rgb(255, 255, 255)" stroke="rgb(0, 0, 0)" stroke-width="3"/><rect x="265" y="647" width="34" height="16" fill="rgb(255, 255, 255)" stroke="rgb(0, 0, 0)" stroke-width="3"/><rect x="278" y="638" width="14" height="17" fill="rgb(255, 255, 255)" stroke="rgb(0, 0, 0)" stroke-width="3"/><rect x="282" y="624" width="21" height="27" fill="rgb(255, 255, 255)" stroke="rgb(0, 0, 0)" stroke-width="3"/></svg>