<?xml version="1.0" standalone="no"?><!DOCTYPE svg PUBLIC "-//W3C//DTD SVG 1.1//EN" "http://www.w3.org/Graphics/SVG/1.1/DTD/svg11.dtd"><svg width="850" height="1100" version="1.1" xmlns="http://www.w3.org/2000/svg" xmlns:xlink="http://www.w3.org/1999/xlink"><defs xmlns="http://www.w3.org/1999/xhtml"><style type="text/css"><![CDATA[
body { background-color: rgb(234, 234, 234); }
#canvas svg { box-shadow: rgba(0, 0, 0, 0.0588235) 0px 3px 2px 0px, rgba(0, 0, 0, 0.0196078) -1px -1px 1px 0px inset; border-width: 1px; border-style: solid; border-color: rgb(226, 226, 226) rgb(226, 226, 226) rgb(206, 206, 206); background-color: white; }]]></style></defs><rect x="0" y="0" width="850" height="1100" fill="rgb(0, 0, 0)" stroke="rgb(0, 0, 0)"/><ellipse cx="850" cy="183.33333333333334" rx="758.3333333333334" ry="758.3333333333334" fill="rgb(255, 255, 255)" stroke="rgb(0, 0, 0)"/><ellipse cx="212.5" cy="275" rx="35" ry="35" fill="rgb(0, 0, 0)" stroke="rgb(0, 0, 0)"/><ellipse cx="208.20472935866565" cy="274.4239201224409" rx="32.4155152621679" ry="32.4155152621679" fill="rgb(255, 255, 255)" stroke="rgb(0, 0, 0)"/><ellipse cx="214.66404833776167" cy="277.3925302827908" rx="26.675209046112883" ry="26.675209046112883" fill="rgb(0, 0, 0)" stroke="rgb(0, 0, 0)"/><ellipse cx="680" cy="800" rx="50" ry="50" fill="rgb(0, 0, 0)" stroke="rgb(0, 0, 0)"/><ellipse cx="685.4246109025553" cy="794.3564774654806" rx="54.85199541784823" ry="54.85199541784823" fill="rgb(255, 255, 255)" stroke="rgb(0, 0, 0)"/><ellipse cx="688.2479783294027" cy="787.5211741958365" rx="45.310648181176404" ry="45.310648181176404" fill="rgb(0, 0, 0)" stroke="rgb(0, 0, 0)"/><ellipse cx="750" cy="200" rx="85" ry="85" fill="rgb(0, 0, 0)" stroke="rgb(0, 0, 0)"/><ellipse cx="757.3733532591723" cy="216.45473890099674" rx="102.85737255914135" ry="102.85737255914135" fill="rgb(255, 255, 255)" stroke="rgb(0, 0, 0)"/><ellipse cx="747.5924447705326" cy="233.18017391797264" rx="91.26777863269908" ry="91.26777863269908" fill="rgb(0, 0, 0)" stroke="rgb(0, 0, 0)"/><ellipse cx="590" cy="500" rx="150" ry="150" fill="rgb(0, 0, 0)" stroke="rgb(0, 0, 0)"/><ellipse cx="585.0603823270649" cy="505.6624200986698" rx="160.92240020167083" ry="160.92240020167083" fill="rgb(255, 255, 255)" stroke="rgb(0, 0, 0)"/><ellipse cx="604.1783044281029" cy="536.304386677882" rx="129.12660819991916" ry="129.12660819991916" fill="rgb(0, 0, 0)" stroke="rgb(0, 0, 0)"/><ellipse cx="450" cy="50" rx="70" ry="70" fill="rgb(0, 0, 0)" stroke="rgb(0, 0, 0)"/><ellipse cx="460.78750343155116" cy="39.67492357082665" rx="77.44758815411478" ry="77.44758815411478" fill="rgb(255, 255, 255)" stroke="rgb(0, 0, 0)"/><ellipse cx="447.85480551689375" cy="54.20767333056763" rx="76.09781454438159" ry="76.09781454438159" fill="rgb(0, 0, 0)" stroke="rgb(0, 0, 0)"/><rect x="-77" y="946" width="112" height="52" fill="rgb(255, 255, 255)" stroke="rgb(0, 0, 0)" stroke-width="3"/><rect x="-28" y="972" width="26" height="36" fill="rgb(255, 255, 255)" stroke="rgb(0, 0, 0)" stroke-width="3"/><rect x="-15" y="938" width="29" height="52" fill="rgb(255, 255, 255)" stroke="rgb(0, 0, 0)" stroke-width="3"/><rect x="-39" y="926" width="100" height="100" fill="rgb(255, 255, 255)" stroke="rgb(0, 0, 0)" stroke-width="3"/><rect x="20" y="861" width="24" height="100" fill="rgb(255, 255, 255)" stroke="rgb(0, 0, 0)" stroke-width="3"/><rect x="24" y="886" width="126" height="22" fill="rgb(255, 255, 255)" stroke="rgb(0, 0, 0)" stroke-width="3"/><rect x="78" y="817" width="52" height="109" fill="rgb(255, 255, 255)" stroke="rgb(0, 0, 0)" stroke-width="3"/><rect x="108" y="792" width="8" height="105" fill="rgb(255, 255, 255)" stroke="rgb(0, 0, 0)" stroke-width="3"/><rect x="95" y="810" width="137" height="14" fill="rgb(255, 255, 255)" stroke="rgb(0, 0, 0)" stroke-width="3"/><rect x="151" y="795" width="61" height="22" fill="rgb(255, 255, 255)" stroke="rgb(0, 0, 0)" stroke-width="3"/><rect x="198" y="747" width="5" height="98" fill="rgb(255, 255, 255)" stroke="rgb(0, 0, 0)" stroke-width="3"/><rect x="180" y="723" width="127" height="34" fill="rgb(255, 255, 255)" stroke="rgb(0, 0, 0)" stroke-width="3"/><rect x="229" y="711" width="47" height="36" fill="rgb(255, 255, 255)" stroke="rgb(0, 0, 0)" stroke-width="3"/><rect x="262" y="653" width="6" height="85" fill="rgb(255, 255, 255)" stroke="rgb(0, 0, 0)" stroke-width="3"/><rect x="265" y="647" width="34" height="16" fill="rgb(255, 255, 255)" stroke="rgb(0, 0, 0)" stroke-width="3"/><rect x="278" y="638" width="14" height="17" fill="rgb(255, 255, 255)" stroke="rgb(0, 0, 0)" stroke-width="3"/><rect x="282" y="624" width="21" height="27" fill="rgb(255, 255, 255)" stroke="rgb(0, 0, 0)" stroke-width="3"/></svg>