<?xml version="1.0" standalone="no"?><!DOCTYPE svg PUBLIC "-//W3C//DTD SVG 1.1//EN" "http://www.w3.org/Graphics/SVG/1.1/DTD/svg11.dtd"><svg width="850" height="1100" version="1.1" xmlns="http://www.w3.org/2000/svg" xmlns:xlink="http://www.w3.org/1999/xlink"><defs xmlns="http://www.w3.org/1999/xhtml"><style type="text/css"><![CDATA[
body { background-color: rgb(234, 234, 234); }
#canvas svg { box-shadow: rgba(0, 0, 0, 0.0588235) 0px 3px 2px 0px, rgba(0, 0, 0, 0.0196078) -1px -1px 1px 0px inset; border-width: 1px; border-style: solid; border-color: rgb(226, 226, 226) rgb(226, 226, 226) rgb(206, 206, 206); background-color: white; }]]></style></defs><rect x="0" y="0" width="850" height="1100" fill="rgb(0, 0, 0)" stroke="rgb(0, 0, 0)"/><ellipse cx="850" cy="183.33333333333334" rx="758.3333333333334" ry="758.3333333333334" fill="rgb(255, 255, 255)" stroke="rgb(0, 0, 0)"/><ellipse cx="283.3333333333333" cy="275" rx="75" ry="75" fill="rgb(0, 0, 0)" stroke="rgb(0, 0, 0)"/><ellipse cx="278.1850394288388" cy="286.68887191684917" rx="66.02161488030106" ry="66.02161488030106" fill="rgb(255, 255, 255)" stroke="rgb(0, 0, 0)"/><ellipse cx="291.27291853048405" cy="293.0131781777504" rx="44.7331552676639" ry="44.7331552676639" fill="rgb(0, 0, 0)" stroke="rgb(0, 0, 0)"/><ellipse cx="680" cy="550" rx="250" ry="250" fill="rgb(0, 0, 0)" stroke="rgb(0, 0, 0)"/><ellipse cx="662.6909795636311" cy="534.4155545113608" rx="177.7725679450668" ry="177.7725679450668" fill="rgb(255, 255, 255)" stroke="rgb(0, 0, 0)"/><ellipse cx="688.7253353286193" cy="560.9141035238148" rx="113.43997535556082" ry="113.43997535556082" fill="rgb(0, 0, 0)" stroke="rgb(0, 0, 0)"/><ellipse cx="750" cy="50" rx="150" ry="150" fill="rgb(0, 0, 0)" stroke="rgb(0, 0, 0)"/><ellipse cx="770.3575435001403" cy="46.163957486860454" rx="119.849971330259" ry="119.849971330259" fill="rgb(255, 255, 255)" stroke="rgb(0, 0, 0)"/><ellipse cx="788.6676710491603" cy="36.0404173562471" rx="66.52413148911246" ry="66.52413148911246" fill="rgb(0, 0, 0)" stroke="rgb(0, 0, 0)"/><rect x="-77" y="946" width="112" height="52" fill="rgb(255, 255, 255)" stroke="rgb(0, 0, 0)" stroke-width="3"/><rect x="-28" y="972" width="26" height="36" fill="rgb(255, 255, 255)" stroke="rgb(0, 0, 0)" stroke-width="3"/><rect x="-15" y="938" width="29" height="52" fill="rgb(255, 255, 255)" stroke="rgb(0, 0, 0)" stroke-width="3"/><rect x="-39" y="926" width="100" height="100" fill="rgb(255, 255, 255)" stroke="rgb(0, 0, 0)" stroke-width="3"/><rect x="20" y="861" width="24" height="100" fill="rgb(255, 255, 255)" stroke="rgb(0, 0, 0)" stroke-width="3"/><rect x="24" y="886" width="126" height="22" fill="rgb(255, 255, 255)" stroke="rgb(0, 0, 0)" stroke-width="3"/><rect x="78" y="817" width="52" height="109" fill="rgb(255, 255, 255)" stroke="rgb(0, 0, 0)" stroke-width="3"/><rect x="108" y="792" width="8" height="105" fill="rgb(255, 255, 255)" stroke="rgb(0, 0, 0)" stroke-width="3"/><rect x="95" y="810" width="137" height="14" fill="rgb(255, 255, 255)" stroke="rgb(0, 0, 0)" stroke-width="3"/><rect x="151" y="795" width="61" height="22" fill="rgb(255, 255, 255)" stroke="rgb(0, 0, 0)" stroke-width="3"/><rect x="198" y="747" width="5" height="98" fill="rgb(255, 255, 255)" stroke="rgb(0, 0, 0)" stroke-width="3"/><rect x="180" y="723" width="127" height="34" fill="rgb(255, 255, 255)" stroke="rgb(0, 0, 0)" stroke-width="3"/><rect x="229" y="711" width="47" height="36" fill="rgb(255, 255, 255)" stroke="rgb(0, 0, 0)" stroke-width="3"/><rect x="262" y="653" width="6" height="85" fill="rgb(255, 255, 255)" stroke="rgb(0, 0, 0)" stroke-width="3"/><rect x="265" y="647" width="34" height="16" fill="rgb(255, 255, 255)" stroke="rgb(0, 0, 0)" stroke-width="3"/><rect x="278" y="638" width="14" height="17" fill="rgb(255, 255, 255)" stroke="rgb(0, 0, 0)" stroke-width="3"/><rect x="282" y="624" width="21" height="27" fill="rgb(255, 255, 255)" stroke="rgb(0, 0, 0)" stroke-width="3"/></svg>