<?xml version="1.0" standalone="no"?><!DOCTYPE svg PUBLIC "-//W3C//DTD SVG 1.1//EN" "http://www.w3.org/Graphics/SVG/1.1/DTD/svg11.dtd"><svg width="850" height="1100" version="1.1" xmlns="http://www.w3.org/2000/svg" xmlns:xlink="http://www.w3.org/1999/xlink"><defs xmlns="http://www.w3.org/1999/xhtml"><style type="text/css"><![CDATA[
body { background-color: rgb(234, 234, 234); }
#canvas svg { box-shadow: rgba(0, 0, 0, 0.0588235) 0px 3px 2px 0px, rgba(0, 0, 0, 0.0196078) -1px -1px 1px 0px inset; border-width: 1px; border-style: solid; border-color: rgb(226, 226, 226) rgb(226, 226, 226) rgb(206, 206, 206); background-color: white; }]]></style></defs><rect x="0" y="0" width="850" height="1100" fill="rgb(0, 0, 0)" stroke="rgb(0, 0, 0)"/><ellipse cx="850" cy="183.33333333333334" rx="758.3333333333334" ry="758.3333333333334" fill="rgb(255, 255, 255)" stroke="rgb(0, 0, 0)"/><ellipse cx="283.3333333333333" cy="275" rx="85" ry="85" fill="rgb(0, 0, 0)" stroke="rgb(0, 0, 0)"/><ellipse cx="298.7459141498742" cy="265.7782514258288" rx="103.72899225587027" ry="103.72899225587027" fill="rgb(255, 255, 255)" stroke="rgb(0, 0, 0)"/><ellipse cx="288.3451758891403" cy="270.55949354888344" rx="92.7182627638349" ry="92.7182627638349" fill="rgb(0, 0, 0)" stroke="rgb(0, 0, 0)"/><ellipse cx="870" cy="550" rx="150" ry="150" fill="rgb(0, 0, 0)" stroke="rgb(0, 0, 0)"/><ellipse cx="888.6353794159368" cy="570.3687756555155" rx="135.18199152778834" ry="135.18199152778834" fill="rgb(255, 255, 255)" stroke="rgb(0, 0, 0)"/><ellipse cx="899.6619302498943" cy="578.5126879700221" rx="124.04954303645758" ry="124.04954303645758" fill="rgb(0, 0, 0)" stroke="rgb(0, 0, 0)"/><ellipse cx="750" cy="300" rx="35" ry="35" fill="rgb(0, 0, 0)" stroke="rgb(0, 0, 0)"/><ellipse cx="745.444710245356" cy="301.24547619605437" rx="45.13773136399686" ry="45.13773136399686" fill="rgb(255, 255, 255)" stroke="rgb(0, 0, 0)"/><ellipse cx="746.624427221488" cy="297.8974418280366" rx="42.169411733736354" ry="42.169411733736354" fill="rgb(0, 0, 0)" stroke="rgb(0, 0, 0)"/><ellipse cx="510" cy="550" rx="45" ry="45" fill="rgb(0, 0, 0)" stroke="rgb(0, 0, 0)"/><ellipse cx="512.0263995314017" cy="553.8724970375188" rx="41.01371204294264" ry="41.01371204294264" fill="rgb(255, 255, 255)" stroke="rgb(0, 0, 0)"/><ellipse cx="514.7104461496257" cy="558.8144753936994" rx="37.09259533850771" ry="37.09259533850771" fill="rgb(0, 0, 0)" stroke="rgb(0, 0, 0)"/><ellipse cx="550" cy="50" rx="70" ry="70" fill="rgb(0, 0, 0)" stroke="rgb(0, 0, 0)"/><ellipse cx="546.8480456816033" cy="45.464132190681994" rx="68.6103469086811" ry="68.6103469086811" fill="rgb(255, 255, 255)" stroke="rgb(0, 0, 0)"/><ellipse cx="550.7109112620175" cy="51.6336232424158" rx="57.422666215235374" ry="57.422666215235374" fill="rgb(0, 0, 0)" stroke="rgb(0, 0, 0)"/><rect x="-77" y="946" width="112" height="52" fill="rgb(255, 255, 255)" stroke="rgb(0, 0, 0)" stroke-width="3"/><rect x="-28" y="972" width="26" height="36" fill="rgb(255, 255, 255)" stroke="rgb(0, 0, 0)" stroke-width="3"/><rect x="-15" y="938" width="29" height="52" fill="rgb(255, 255, 255)" stroke="rgb(0, 0, 0)" stroke-width="3"/><rect x="-39" y="926" width="100" height="100" fill="rgb(255, 255, 255)" stroke="rgb(0, 0, 0)" stroke-width="3"/><rect x="20" y="861" width="24" height="100" fill="rgb(255, 255, 255)" stroke="rgb(0, 0, 0)" stroke-width="3"/><rect x="24" y="886" width="126" height="22" fill="rgb(255, 255, 255)" stroke="rgb(0, 0, 0)" stroke-width="3"/><rect x="78" y="817" width="52" height="109" fill="rgb(255, 255, 255)" stroke="rgb(0, 0, 0)" stroke-width="3"/><rect x="108" y="792" width="8" height="105" fill="rgb(255, 255, 255)" stroke="rgb(0, 0, 0)" stroke-width="3"/><rect x="95" y="810" width="137" height="14" fill="rgb(255, 255, 255)" stroke="rgb(0, 0, 0)" stroke-width="3"/><rect x="151" y="795" width="61" height="22" fill="rgb(255, 255, 255)" stroke="rgb(0, 0, 0)" stroke-width="3"/><rect x="198" y="747" width="5" height="98" fill="rgb(255, 255, 255)" stroke="rgb(0, 0, 0)" stroke-width="3"/><rect x="180" y="723" width="127" height="34" fill="rgb(255, 255, 255)" stroke="rgb(0, 0, 0)" stroke-width="3"/><rect x="229" y="711" width="47" height="36" fill="rgb(255, 255, 255)" stroke="rgb(0, 0, 0)" stroke-width="3"/><rect x="262" y="653" width="6" height="85" fill="rgb(255, 255, 255)" stroke="rgb(0, 0, 0)" stroke-width="3"/><rect x="265" y="647" width="34" height="16" fill="rgb(255, 255, 255)" stroke="rgb(0, 0, 0)" stroke-width="3"/><rect x="278" y="638" width="14" height="17" fill="rgb(255, 255, 255)" stroke="rgb(0, 0, 0)" stroke-width="3"/><rect x="282" y="624" width="21" height="27" fill="rgb(255, 255, 255)" stroke="rgb(0, 0, 0)" stroke-width="3"/></svg>