<?xml version="1.0" standalone="no"?><!DOCTYPE svg PUBLIC "-//W3C//DTD SVG 1.1//EN" "http://www.w3.org/Graphics/SVG/1.1/DTD/svg11.dtd"><svg width="850" height="1100" version="1.1" xmlns="http://www.w3.org/2000/svg" xmlns:xlink="http://www.w3.org/1999/xlink"><defs xmlns="http://www.w3.org/1999/xhtml"><style type="text/css"><![CDATA[
body { background-color: rgb(234, 234, 234); }
#canvas svg { box-shadow: rgba(0, 0, 0, 0.0588235) 0px 3px 2px 0px, rgba(0, 0, 0, 0.0196078) -1px -1px 1px 0px inset; border-width: 1px; border-style: solid; border-color: rgb(226, 226, 226) rgb(226, 226, 226) rgb(206, 206, 206); background-color: white; }]]></style></defs><rect x="0" y="0" width="850" height="1100" fill="rgb(0, 0, 0)" stroke="rgb(0, 0, 0)"/><ellipse cx="850" cy="183.33333333333334" rx="758.3333333333334" ry="758.3333333333334" fill="rgb(255, 255, 255)" stroke="rgb(0, 0, 0)"/><ellipse cx="212.5" cy="275" rx="35" ry="35" fill="rgb(0, 0, 0)" stroke="rgb(0, 0, 0)"/><ellipse cx="209.0468990728259" cy="278.5798878581263" rx="34.13140288926661" ry="34.13140288926661" fill="rgb(255, 255, 255)" stroke="rgb(0, 0, 0)"/><ellipse cx="213.29654274014274" cy="273.6964993106909" rx="33.82218518543087" ry="33.82218518543087" fill="rgb(0, 0, 0)" stroke="rgb(0, 0, 0)"/><ellipse cx="680" cy="800" rx="50" ry="50" fill="rgb(0, 0, 0)" stroke="rgb(0, 0, 0)"/><ellipse cx="674.3966961232945" cy="807.1679643169045" rx="59.18366322759538" ry="59.18366322759538" fill="rgb(255, 255, 255)" stroke="rgb(0, 0, 0)"/><ellipse cx="681.5209415581652" cy="796.0934267320683" rx="55.81074849540272" ry="55.81074849540272" fill="rgb(0, 0, 0)" stroke="rgb(0, 0, 0)"/><ellipse cx="750" cy="200" rx="85" ry="85" fill="rgb(0, 0, 0)" stroke="rgb(0, 0, 0)"/><ellipse cx="740.4181432370096" cy="210.3639388321899" rx="102.90361941047013" ry="102.90361941047013" fill="rgb(255, 255, 255)" stroke="rgb(0, 0, 0)"/><ellipse cx="748.5810705530934" cy="215.33430272659848" rx="86.12549727737397" ry="86.12549727737397" fill="rgb(0, 0, 0)" stroke="rgb(0, 0, 0)"/><ellipse cx="590" cy="500" rx="150" ry="150" fill="rgb(0, 0, 0)" stroke="rgb(0, 0, 0)"/><ellipse cx="576.4947223849595" cy="502.4059205176309" rx="183.31627649255097" ry="183.31627649255097" fill="rgb(255, 255, 255)" stroke="rgb(0, 0, 0)"/><ellipse cx="548.5290377237236" cy="516.9218781520411" rx="150.76206190229072" ry="150.76206190229072" fill="rgb(0, 0, 0)" stroke="rgb(0, 0, 0)"/><ellipse cx="450" cy="50" rx="70" ry="70" fill="rgb(0, 0, 0)" stroke="rgb(0, 0, 0)"/><ellipse cx="454.02313475031406" cy="50.637589803896844" rx="81.20319480542094" ry="81.20319480542094" fill="rgb(255, 255, 255)" stroke="rgb(0, 0, 0)"/><ellipse cx="452.7106087693847" cy="47.28076678544844" rx="77.40297752344446" ry="77.40297752344446" fill="rgb(0, 0, 0)" stroke="rgb(0, 0, 0)"/><rect x="-77" y="946" width="112" height="52" fill="rgb(255, 255, 255)" stroke="rgb(0, 0, 0)" stroke-width="3"/><rect x="-28" y="972" width="26" height="36" fill="rgb(255, 255, 255)" stroke="rgb(0, 0, 0)" stroke-width="3"/><rect x="-15" y="938" width="29" height="52" fill="rgb(255, 255, 255)" stroke="rgb(0, 0, 0)" stroke-width="3"/><rect x="-39" y="926" width="100" height="100" fill="rgb(255, 255, 255)" stroke="rgb(0, 0, 0)" stroke-width="3"/><rect x="20" y="861" width="24" height="100" fill="rgb(255, 255, 255)" stroke="rgb(0, 0, 0)" stroke-width="3"/><rect x="24" y="886" width="126" height="22" fill="rgb(255, 255, 255)" stroke="rgb(0, 0, 0)" stroke-width="3"/><rect x="78" y="817" width="52" height="109" fill="rgb(255, 255, 255)" stroke="rgb(0, 0, 0)" stroke-width="3"/><rect x="108" y="792" width="8" height="105" fill="rgb(255, 255, 255)" stroke="rgb(0, 0, 0)" stroke-width="3"/><rect x="95" y="810" width="137" height="14" fill="rgb(255, 255, 255)" stroke="rgb(0, 0, 0)" stroke-width="3"/><rect x="151" y="795" width="61" height="22" fill="rgb(255, 255, 255)" stroke="rgb(0, 0, 0)" stroke-width="3"/><rect x="198" y="747" width="5" height="98" fill="rgb(255, 255, 255)" stroke="rgb(0, 0, 0)" stroke-width="3"/><rect x="180" y="723" width="127" height="34" fill="rgb(255, 255, 255)" stroke="rgb(0, 0, 0)" stroke-width="3"/><rect x="229" y="711" width="47" height="36" fill="rgb(255, 255, 255)" stroke="rgb(0, 0, 0)" stroke-width="3"/><rect x="262" y="653" width="6" height="85" fill="rgb(255, 255, 255)" stroke="rgb(0, 0, 0)" stroke-width="3"/><rect x="265" y="647" width="34" height="16" fill="rgb(255, 255, 255)" stroke="rgb(0, 0, 0)" stroke-width="3"/><rect x="278" y="638" width="14" height="17" fill="rgb(255, 255, 255)" stroke="rgb(0, 0, 0)" stroke-width="3"/><rect x="282" y="624" width="21" height="27" fill="rgb(255, 255, 255)" stroke="rgb(0, 0, 0)" stroke-width="3"/></svg>