<?xml version="1.0" standalone="no"?><!DOCTYPE svg PUBLIC "-//W3C//DTD SVG 1.1//EN" "http://www.w3.org/Graphics/SVG/1.1/DTD/svg11.dtd"><svg width="850" height="1100" version="1.1" xmlns="http://www.w3.org/2000/svg" xmlns:xlink="http://www.w3.org/1999/xlink"><defs xmlns="http://www.w3.org/1999/xhtml"><style type="text/css"><![CDATA[
body { background-color: rgb(234, 234, 234); }
#canvas svg { box-shadow: rgba(0, 0, 0, 0.0588235) 0px 3px 2px 0px, rgba(0, 0, 0, 0.0196078) -1px -1px 1px 0px inset; border-width: 1px; border-style: solid; border-color: rgb(226, 226, 226) rgb(226, 226, 226) rgb(206, 206, 206); background-color: white; }]]></style></defs><rect x="0" y="0" width="850" height="1100" fill="rgb(0, 0, 0)" stroke="rgb(0, 0, 0)"/><ellipse cx="850" cy="183.33333333333334" rx="758.3333333333334" ry="758.3333333333334" fill="rgb(255, 255, 255)" stroke="rgb(0, 0, 0)"/><ellipse cx="212.5" cy="275" rx="35" ry="35" fill="rgb(0, 0, 0)" stroke="rgb(0, 0, 0)"/><ellipse cx="211.61395104741678" cy="279.6394673823379" rx="32.741999534424394" ry="32.741999534424394" fill="rgb(255, 255, 255)" stroke="rgb(0, 0, 0)"/><ellipse cx="211.32396713640588" cy="280.3730928599031" rx="26.731734856196493" ry="26.731734856196493" fill="rgb(0, 0, 0)" stroke="rgb(0, 0, 0)"/><ellipse cx="680" cy="800" rx="50" ry="50" fill="rgb(0, 0, 0)" stroke="rgb(0, 0, 0)"/><ellipse cx="683.0492480145767" cy="804.124567960389" rx="52.43571499828249" ry="52.43571499828249" fill="rgb(255, 255, 255)" stroke="rgb(0, 0, 0)"/><ellipse cx="680.8434769511225" cy="808.9052833035354" rx="47.35798063934464" ry="47.35798063934464" fill="rgb(0, 0, 0)" stroke="rgb(0, 0, 0)"/><ellipse cx="750" cy="200" rx="85" ry="85" fill="rgb(0, 0, 0)" stroke="rgb(0, 0, 0)"/><ellipse cx="740.4936033086851" cy="214.17597124585882" rx="87.69648345233873" ry="87.69648345233873" fill="rgb(255, 255, 255)" stroke="rgb(0, 0, 0)"/><ellipse cx="741.5439238664545" cy="227.0895486938446" rx="75.74332687908685" ry="75.74332687908685" fill="rgb(0, 0, 0)" stroke="rgb(0, 0, 0)"/><ellipse cx="590" cy="500" rx="150" ry="150" fill="rgb(0, 0, 0)" stroke="rgb(0, 0, 0)"/><ellipse cx="587.5578435370699" cy="474.69374179374427" rx="157.24911001045257" ry="157.24911001045257" fill="rgb(255, 255, 255)" stroke="rgb(0, 0, 0)"/><ellipse cx="594.7677283191954" cy="491.87529369568784" rx="126.42886195852368" ry="126.42886195852368" fill="rgb(0, 0, 0)" stroke="rgb(0, 0, 0)"/><ellipse cx="450" cy="50" rx="70" ry="70" fill="rgb(0, 0, 0)" stroke="rgb(0, 0, 0)"/><ellipse cx="460.9130302583799" cy="36.490649287588894" rx="65.18154693301767" ry="65.18154693301767" fill="rgb(255, 255, 255)" stroke="rgb(0, 0, 0)"/><ellipse cx="467.3519208796355" cy="36.44457877724763" rx="55.95237851579474" ry="55.95237851579474" fill="rgb(0, 0, 0)" stroke="rgb(0, 0, 0)"/><rect x="-77" y="946" width="112" height="52" fill="rgb(255, 255, 255)" stroke="rgb(0, 0, 0)" stroke-width="3"/><rect x="-28" y="972" width="26" height="36" fill="rgb(255, 255, 255)" stroke="rgb(0, 0, 0)" stroke-width="3"/><rect x="-15" y="938" width="29" height="52" fill="rgb(255, 255, 255)" stroke="rgb(0, 0, 0)" stroke-width="3"/><rect x="-39" y="926" width="100" height="100" fill="rgb(255, 255, 255)" stroke="rgb(0, 0, 0)" stroke-width="3"/><rect x="20" y="861" width="24" height="100" fill="rgb(255, 255, 255)" stroke="rgb(0, 0, 0)" stroke-width="3"/><rect x="24" y="886" width="126" height="22" fill="rgb(255, 255, 255)" stroke="rgb(0, 0, 0)" stroke-width="3"/><rect x="78" y="817" width="52" height="109" fill="rgb(255, 255, 255)" stroke="rgb(0, 0, 0)" stroke-width="3"/><rect x="108" y="792" width="8" height="105" fill="rgb(255, 255, 255)" stroke="rgb(0, 0, 0)" stroke-width="3"/><rect x="95" y="810" width="137" height="14" fill="rgb(255, 255, 255)" stroke="rgb(0, 0, 0)" stroke-width="3"/><rect x="151" y="795" width="61" height="22" fill="rgb(255, 255, 255)" stroke="rgb(0, 0, 0)" stroke-width="3"/><rect x="198" y="747" width="5" height="98" fill="rgb(255, 255, 255)" stroke="rgb(0, 0, 0)" stroke-width="3"/><rect x="180" y="723" width="127" height="34" fill="rgb(255, 255, 255)" stroke="rgb(0, 0, 0)" stroke-width="3"/><rect x="229" y="711" width="47" height="36" fill="rgb(255, 255, 255)" stroke="rgb(0, 0, 0)" stroke-width="3"/><rect x="262" y="653" width="6" height="85" fill="rgb(255, 255, 255)" stroke="rgb(0, 0, 0)" stroke-width="3"/><rect x="265" y="647" width="34" height="16" fill="rgb(255, 255, 255)" stroke="rgb(0, 0, 0)" stroke-width="3"/><rect x="278" y="638" width="14" height="17" fill="rgb(255, 255, 255)" stroke="rgb(0, 0, 0)" stroke-width="3"/><rect x="282" y="624" width="21" height="27" fill="rgb(255, 255, 255)" stroke="rgb(0, 0, 0)" stroke-width="3"/></svg>